<svg xmlns="http://www.w3.org/2000/svg" width="25.415" height="25.461" viewBox="0 0 25.415 25.461">
  <g id="Group_48963" data-name="Group 48963" transform="translate(-31.5 -1031.5)">
    <path id="Path_84127" data-name="Path 84127" d="M428.465,500v-3.344a1.127,1.127,0,0,1,.772-.523c.271-.048.537-.135.808-.186a.24.24,0,0,0,.221-.2,10.378,10.378,0,0,1,1.229-2.971.228.228,0,0,0,0-.276c-.173-.275-.339-.554-.5-.837a.722.722,0,0,1,.128-.99q.948-.959,1.9-1.907a.726.726,0,0,1,1.008-.126q.421.243.835.5a.193.193,0,0,0,.235.009,10.463,10.463,0,0,1,3.007-1.254.208.208,0,0,0,.18-.185c.054-.264.14-.521.183-.786a1.009,1.009,0,0,1,.576-.826h3.194a.916.916,0,0,1,.622.8c.047.265.133.523.182.787a.242.242,0,0,0,.207.216,10.32,10.32,0,0,1,2.967,1.234.226.226,0,0,0,.275-.011q.412-.259.837-.5a.711.711,0,0,1,.97.123q.967.957,1.922,1.925a.722.722,0,0,1,.123.991q-.241.423-.5.839a.212.212,0,0,0-.01.255,10.418,10.418,0,0,1,1.242,2.994.228.228,0,0,0,.2.192c.333.07.663.152.992.237a.728.728,0,0,1,.6.774q0,1.373,0,2.747a.731.731,0,0,1-.6.773c-.322.083-.643.17-.969.231a.255.255,0,0,0-.232.221,10.3,10.3,0,0,1-1.222,2.95.241.241,0,0,0,.011.3c.168.269.329.542.486.818a.719.719,0,0,1-.124.99q-.946.96-1.9,1.909a.727.727,0,0,1-1.008.128q-.422-.244-.836-.5a.193.193,0,0,0-.235-.009,10.461,10.461,0,0,1-3.009,1.253.211.211,0,0,0-.178.187c-.057.271-.139.538-.187.81a.919.919,0,0,1-.622.8H439a1.3,1.3,0,0,1-.571-1.008c-.035-.187-.11-.367-.13-.554s-.114-.221-.255-.253a10.56,10.56,0,0,1-1.809-.635c-.166-.073-.153-.12-.037-.235q1.547-1.54,3.085-3.09a.32.32,0,0,1,.311-.108,6.6,6.6,0,0,0,3.435-.371,6.385,6.385,0,0,0,3.882-7.488,6.419,6.419,0,0,0-12.3-.628,6.525,6.525,0,0,0-.273,3.194.345.345,0,0,1-.109.335q-1.544,1.543-3.08,3.1c-.045.044-.092.085-.148.137a8.127,8.127,0,0,1-.671-1.785.576.576,0,0,0-.518-.518C429.323,500.547,428.764,500.532,428.465,500Z" transform="translate(-396.465 545.902)" fill="current" stroke="rgba(0,0,0,0)" stroke-width="1"/>
    <path id="Path_84128" data-name="Path 84128" d="M432.666,512.809h-.688c-.02-.07-.09-.066-.138-.079a1.917,1.917,0,0,1-1.242-1.069c-.063-.132-.055-.292-.167-.4v-.776c.034,0,.042-.03.049-.059a2.412,2.412,0,0,1,.723-1.145q2.916-2.912,5.827-5.828a.315.315,0,0,0,.094-.369,4.349,4.349,0,0,1,.154-3.065,4.518,4.518,0,0,1,5.309-2.627.658.658,0,0,1,.512.567.7.7,0,0,1-.25.59c-.5.5-1.012,1-1.489,1.523a1.25,1.25,0,0,0,0,1.6,1.287,1.287,0,0,0,1.961.047c.471-.463.929-.938,1.4-1.4a.641.641,0,0,1,1.1.319,4.6,4.6,0,0,1,.033,2.11,4.446,4.446,0,0,1-5.708,3.363.329.329,0,0,0-.384.1c-1.84,1.852-3.69,3.695-5.527,5.55A3.268,3.268,0,0,1,432.666,512.809Z" transform="translate(-397.096 542.318)" fill="current" stroke="rgba(0,0,0,0)" stroke-width="1"/>
  </g>
</svg>
