<svg xmlns="http://www.w3.org/2000/svg" width="17.902" height="23.142" viewBox="0 0 17.902 23.142">
  <g id="Group_46586" data-name="Group 46586" transform="translate(-4656.214 -758.142)">
    <path id="Path_84962" data-name="Path 84962" d="M53.6,5.089a5.088,5.088,0,1,1,5.068,5.093A5.1,5.1,0,0,1,53.6,5.089" transform="translate(4606.476 758.142)" fill="current"/>
    <path id="Path_84963" data-name="Path 84963" d="M17.692,157.123a5.772,5.772,0,0,0-5.636-3.834h-3.1c-1.052,0-2.1,0-3.156,0a6.028,6.028,0,0,0-2.094.366,5.109,5.109,0,0,0-3.654,5.1c-.011,1.305-.567,5.5,2.34,6.438a27.319,27.319,0,0,0,4.5.16q2.063,0,4.127,0c.653,0,1.893-.009,3.208-.023,3.6.148,3.72-2.885,3.668-5.947a7.422,7.422,0,0,0-.2-2.259m-12.8-1.635a1.075,1.075,0,0,1,.163-.183,1.67,1.67,0,0,1,.469-.228,5.7,5.7,0,0,1,1.236-.236.754.754,0,0,0,.258-.033H8.072a1.311,1.311,0,0,0,.312.034,5.485,5.485,0,0,1,1.271.254,1.419,1.419,0,0,1,.417.215.292.292,0,0,1,0,.521,1.878,1.878,0,0,1-.689.3,7.474,7.474,0,0,1-2.105.2,6.145,6.145,0,0,1-1.763-.269,2.517,2.517,0,0,1-.271-.11.751.751,0,0,1-.348-.3Zm0,.947c.125.049.249.1.376.145a5.7,5.7,0,0,0,1.294.268,8.741,8.741,0,0,0,1.256.05,7.142,7.142,0,0,0,1.992-.3,3.3,3.3,0,0,0,.422-.177v.089c0,.232-.006.465,0,.7a.393.393,0,0,1-.181.355,1.938,1.938,0,0,1-.667.283,7.823,7.823,0,0,1-2.443.184,5.631,5.631,0,0,1-1.433-.252c-.067-.022-.134-.048-.2-.076a.843.843,0,0,1-.42-.335Zm0,1.715c.125.049.249.1.376.145a5.692,5.692,0,0,0,1.294.268,8.728,8.728,0,0,0,1.256.05,7.155,7.155,0,0,0,1.992-.3,4.1,4.1,0,0,0,.422-.175v.087c0,.232-.006.464,0,.7a.393.393,0,0,1-.181.355,1.936,1.936,0,0,1-.667.283,7.822,7.822,0,0,1-2.443.184,5.633,5.633,0,0,1-1.433-.253c-.067-.022-.134-.048-.2-.076a.843.843,0,0,1-.42-.335Zm3.566,5a8.936,8.936,0,0,1-2.046-.031,4.42,4.42,0,0,1-1.051-.255.884.884,0,0,1-.469-.355v-.929c.018-.015.033,0,.047.008a4.428,4.428,0,0,0,1.338.369,8.926,8.926,0,0,0,1.53.087c.217-.006.433-.023.65-.039.048,0,.062.007.062.055q0,.513,0,1.026c0,.046-.016.061-.06.065m.085-2.815a.572.572,0,0,0-.026.227c0,.262,0,.524,0,.786,0,.057-.01.082-.075.088a8.93,8.93,0,0,1-1.3.033,5.568,5.568,0,0,1-1.771-.318.889.889,0,0,1-.478-.358v-.929c.018-.015.033,0,.047.008a4.431,4.431,0,0,0,1.339.37,9.148,9.148,0,0,0,1.513.087c.235-.005.47-.021.7-.045.047,0,.071-.005.048.052m5.5,2.873a.325.325,0,0,1-.139.239,1.6,1.6,0,0,1-.6.292,5.593,5.593,0,0,1-1.414.212,6.815,6.815,0,0,1-1.851-.158,2.437,2.437,0,0,1-.7-.263.452.452,0,0,1-.257-.459c.011-.115,0-.231,0-.355a5.529,5.529,0,0,0,2.477.47,5.52,5.52,0,0,0,2.481-.469c0,.169,0,.33,0,.49m0-1.315a.336.336,0,0,1-.157.239,1.869,1.869,0,0,1-.695.3,6.611,6.611,0,0,1-1.892.181,5.5,5.5,0,0,1-1.594-.254,1.518,1.518,0,0,1-.443-.222.391.391,0,0,1-.175-.35c.007-.133,0-.266,0-.41a5.478,5.478,0,0,0,2.482.472,5.462,5.462,0,0,0,2.475-.47c0,.173.006.342,0,.51m-.09-1.159a1.132,1.132,0,0,1-.455.271,4.777,4.777,0,0,1-1.242.253,7.386,7.386,0,0,1-1.159.017,4.785,4.785,0,0,1-1.579-.321,1.052,1.052,0,0,1-.295-.181.3.3,0,0,1,0-.494,1.3,1.3,0,0,1,.458-.249,5.2,5.2,0,0,1,1.45-.255l.405-.018a6.359,6.359,0,0,1,1.86.252,1.782,1.782,0,0,1,.4.178.774.774,0,0,1,.16.128.279.279,0,0,1,0,.42" transform="translate(4656.214 615.908)" fill="current"/>
  </g>
</svg>
