<svg xmlns="http://www.w3.org/2000/svg" width="28.833" height="26.233" viewBox="0 0 28.833 26.233">
  <g id="Group_46570" data-name="Group 46570" transform="translate(2262 -9173.212)">
    <g id="Group_46607" data-name="Group 46607">
      <path id="Path_84370" data-name="Path 84370" d="M125.038.016a4.2,4.2,0,0,1,2.2.435,4.631,4.631,0,0,1,2.081,1.867c.968,1.656,1.942,3.309,2.905,4.968.844,1.454,1.671,2.918,2.513,4.373,1.056,1.824,2.12,3.644,3.179,5.467.31.534.609,1.074.916,1.609a4.846,4.846,0,0,1,.636,2.9,4.981,4.981,0,0,1-1.144,2.776,4.9,4.9,0,0,1-2.9,1.718,4.843,4.843,0,0,1-3.954-.9,7.031,7.031,0,0,1-1.8-2.284q-1.359-2.354-2.724-4.7c-.763-1.322-1.519-2.648-2.285-3.968-.823-1.419-1.672-2.824-2.478-4.253a30.594,30.594,0,0,1-1.778-3.239,5.089,5.089,0,0,1-.316-1.35,4.639,4.639,0,0,1,.557-2.806A4.821,4.821,0,0,1,124.115.064a7.969,7.969,0,0,1,.924-.048" transform="translate(-2372.655 9173.213)" fill="current"/>
      <path id="Path_84371" data-name="Path 84371" d="M4.978,207.415a4.925,4.925,0,0,1,5.051,4.644A5.019,5.019,0,1,1,0,212.351a4.919,4.919,0,0,1,4.978-4.936" transform="translate(-2262 8982.045)" fill="current"/>
      <path id="Path_84372" data-name="Path 84372" d="M41.5,88.6a6.109,6.109,0,0,0-3.11-4.607,6.313,6.313,0,0,0-5.558-.356l5.578-9.651c.186.219.112.475.181.7a11.337,11.337,0,0,0,1,2.2c.689,1.224,1.4,2.436,2.108,3.65.728,1.246,1.464,2.486,2.194,3.73a.2.2,0,0,1,.008.248c-.785,1.344-1.555,2.7-2.331,4.047-.011.019-.042.027-.074.046" transform="translate(-2292.256 9105.023)" fill="current"/>
    </g>
  </g>
</svg>
