<svg xmlns="http://www.w3.org/2000/svg" width="27.333" height="28.965" viewBox="0 0 27.333 28.965">
  <g id="Group_46572" data-name="Group 46572" transform="translate(2261 -9353.612)">
    <g id="Group_46609" data-name="Group 46609">
      <path id="Path_84378" data-name="Path 84378" d="M15.627,0a4.181,4.181,0,0,0,.9.075c.835.056,1.671.1,2.5.192.485.054.963.169,1.448.22C21.49.592,22.5.715,23.5.89a28.187,28.187,0,0,1,3.045.637.967.967,0,0,1,.728.523,1.094,1.094,0,0,1,.063.436q0,10.045,0,20.09c0,.7,0,1.409,0,2.114a.74.74,0,0,1-.6.822c-.7.2-1.4.385-2.1.574q-3.178.857-6.357,1.711c-1.353.363-2.711.709-4.059,1.092a1.9,1.9,0,0,1-1.1-.009c-1.512-.428-3.034-.821-4.552-1.229q-2.674-.719-5.347-1.441c-.866-.233-1.733-.465-2.6-.7a.74.74,0,0,1-.567-.666,14.722,14.722,0,0,1-.01-2.375c.024-.334-.027-.666-.031-1-.008-.638-.02-1.276,0-1.913.026-.733-.01-1.465-.008-2.2C.014,15,0,12.644.017,10.287c0-.449.031-.9.013-1.349-.022-.555-.011-1.11,0-1.662.011-.717-.05-1.433,0-2.152C.061,4.67-.025,4.2.017,3.748.062,3.26-.03,2.773.039,2.286a.811.811,0,0,1,.612-.712c.959-.29,1.942-.481,2.922-.681A26.512,26.512,0,0,1,6.3.5C7.508.385,8.709.2,9.921.128L11.339.042A.417.417,0,0,0,11.532,0ZM1.3,13.589V24.135c0,.329,0,.327.324.412q1.614.42,3.228.842,4.313,1.131,8.625,2.264a.825.825,0,0,0,.437,0q1.289-.345,2.58-.682,4.658-1.219,9.317-2.431a.3.3,0,0,0,.269-.35q-.008-10.568,0-21.135c0-.225-.062-.323-.289-.377A54.087,54.087,0,0,0,19.841,1.64c-1.892-.23-3.792-.331-5.7-.383-.971-.027-1.941.026-2.911.066q-2.221.091-4.425.385a46.948,46.948,0,0,0-5.222.964.315.315,0,0,0-.289.372q.011,5.273,0,10.545" transform="translate(-2261 9353.612)" fill="current"/>
      <path id="Path_84379" data-name="Path 84379" d="M224.293,267.869c-.252,0-.505-.013-.756,0a.268.268,0,0,1-.331-.256c-.144-.719-.3-1.436-.453-2.153-.067-.322-.065-.323-.384-.323-.8,0-1.6.007-2.4,0-.219,0-.315.065-.356.285-.139.743-.3,1.481-.442,2.224a.235.235,0,0,1-.281.228c-.519-.008-1.038-.01-1.557,0-.206,0-.234-.076-.193-.254q.535-2.319,1.061-4.639c.537-2.356,1.077-4.712,1.6-7.07.052-.233.153-.307.376-.292.733.05,1.468.026,2.2.019.209,0,.222.125.253.262q.5,2.212,1,4.424.81,3.567,1.621,7.135c.113.5.08.4-.32.411-.215,0-.43,0-.645,0m-3.1-9.813a.787.787,0,0,0-.051.108q-.51,2.426-1.02,4.853c-.041.194.059.213.205.212.578,0,1.157-.007,1.735,0,.19,0,.226-.058.187-.235-.186-.839-.363-1.681-.543-2.521-.168-.789-.336-1.579-.514-2.419" transform="translate(-2468.444 9109.39)" fill="current"/>
      <path id="Path_84380" data-name="Path 84380" d="M84.764,261.874q0-2.87,0-5.74c0-.311,0-.342.3-.331a27.719,27.719,0,0,1,3.53.09,2.533,2.533,0,0,1,2.292,2.312,9.486,9.486,0,0,1-.007,3.012,2.633,2.633,0,0,1-2.5,2.315,10.189,10.189,0,0,1-1.311.037c-.184,0-.244.062-.243.246.006,1.283,0,2.566,0,3.849,0,.308,0,.31-.309.311-.49,0-.979-.008-1.469,0-.224.005-.293-.075-.292-.3.007-1.936,0-3.871,0-5.807m2.066-2.191c0,.526,0,1.052,0,1.578,0,.394-.048.4.373.4.081,0,.162.02.243.019.858-.015,1.384-.232,1.439-1.162.033-.561.021-1.126,0-1.689a1.043,1.043,0,0,0-.936-1.093,5.951,5.951,0,0,0-.909-.035c-.169-.01-.217.063-.215.223.006.585,0,1.171,0,1.756" transform="translate(-2341.982 9109.224)" fill="current"/>
      <path id="Path_84381" data-name="Path 84381" d="M427.465,262.027q0-2.891,0-5.783c0-.356.011-.353.363-.341.489.016.979.021,1.467.005.215-.007.262.069.262.266q-.008,2.991,0,5.983,0,1.879,0,3.759c0,.289.008.3.3.3.541,0,1.082,0,1.624,0,.277,0,.3.018.3.285,0,.467-.006.934,0,1.4,0,.2-.085.245-.269.244-1.253-.006-2.506-.009-3.759,0-.229,0-.292-.073-.291-.292.006-1.942,0-3.885,0-5.827" transform="translate(-2669.409 9109.118)" fill="current"/>
      <path id="Path_84382" data-name="Path 84382" d="M460.627,96.5a.98.98,0,0,1,.612,1.044c.006.393,0,.786,0,1.178,0,.172-.061.245-.234.235a3.32,3.32,0,0,0-.422,0c-.189.013-.268-.056-.26-.254.012-.333.006-.667,0-1a1.883,1.883,0,0,0-.03-.309.49.49,0,0,0-.521-.472c-.169-.013-.341,0-.511-.007s-.209.056-.207.208c.005.519-.007,1.038.005,1.556.005.216-.074.281-.283.281-.631,0-.631.005-.631-.615q0-2.267,0-4.535c0-.293,0-.3.3-.295a13.489,13.489,0,0,1,1.687.036,1.143,1.143,0,0,1,1.068,1.139,4.678,4.678,0,0,1,.009.8,1.173,1.173,0,0,1-.587,1.011m-1.565-1.284c0,.229,0,.458,0,.687,0,.125.037.2.176.193.192-.005.385.005.576-.007a.461.461,0,0,0,.472-.463,8.11,8.11,0,0,0,0-.841.391.391,0,0,0-.392-.4c-.213-.017-.428-.007-.642-.015-.146,0-.194.068-.191.2,0,.214,0,.429,0,.643" transform="translate(-2698.729 9264.276)" fill="current"/>
      <path id="Path_84383" data-name="Path 84383" d="M87.213,96.511a.932.932,0,0,1,.629.982c0,.415-.006.831,0,1.246,0,.174-.063.238-.234.234-.831-.016-.666.108-.683-.65-.006-.267,0-.534,0-.8a.541.541,0,0,0-.58-.59c-.681-.034-.681-.034-.681.641,0,.378-.007.757,0,1.134.005.187-.048.27-.249.266-.8-.016-.659.1-.663-.651-.008-1.5,0-3,0-4.494,0-.292.008-.306.3-.3a14.353,14.353,0,0,1,1.621.031,1.146,1.146,0,0,1,1.142,1.117,3.726,3.726,0,0,1,.007.887,1.088,1.088,0,0,1-.609.945m-1.55-1.26h0q0,.089,0,.177c0,.746,0,.746.748.677a.487.487,0,0,0,.48-.412,2.78,2.78,0,0,0,.013-.9.425.425,0,0,0-.455-.4c-.2-.011-.4,0-.6-.008-.146,0-.194.065-.19.2.006.221,0,.443,0,.665" transform="translate(-2341.971 9264.259)" fill="current"/>
      <path id="Path_84384" data-name="Path 84384" d="M327.388,98.883c-.535,0-.423.024-.533-.439-.039-.166-.076-.332-.1-.5a.179.179,0,0,0-.212-.169q-.456.008-.912,0a.188.188,0,0,0-.221.187c-.037.241-.1.48-.137.72a.206.206,0,0,1-.239.2,3.9,3.9,0,0,0-.445,0c-.2.014-.239-.076-.2-.256.164-.73.321-1.462.481-2.193.2-.926.407-1.852.6-2.78.036-.173.111-.234.284-.225a6.569,6.569,0,0,0,.689,0c.172-.009.249.051.285.224.185.892.382,1.782.574,2.673q.242,1.119.484,2.238c.068.315.066.315-.263.317h-.133M326.1,94.661l-.036-.008-.423,2.108c-.027.135.028.194.165.191.155,0,.311,0,.466,0,.279,0,.282,0,.23-.266-.133-.675-.268-1.349-.4-2.024" transform="translate(-2570.914 9264.347)" fill="current"/>
      <path id="Path_84385" data-name="Path 84385" d="M252.789,96.171c0-.808,0-1.615,0-2.423,0-.274.019-.294.29-.29a12.609,12.609,0,0,1,1.51.024,1.158,1.158,0,0,1,1.165,1.216,6.1,6.1,0,0,1-.025,1.463,1.144,1.144,0,0,1-1.03,1.009,3.951,3.951,0,0,1-.753.038c-.162-.007-.226.053-.222.219.007.4-.005.8.005,1.2.005.2-.051.293-.263.274a2.657,2.657,0,0,0-.422,0c-.2.014-.259-.077-.258-.263.005-.822,0-1.645,0-2.467m.938-.836h0c0,.141,0,.282,0,.422.018.693-.144.591.644.589a.418.418,0,0,0,.455-.443c.013-.385.012-.771,0-1.156a.4.4,0,0,0-.417-.426c-.162-.012-.326,0-.489-.01-.144-.005-.2.061-.2.2,0,.274,0,.548,0,.823" transform="translate(-2502.52 9264.33)" fill="current"/>
      <path id="Path_84386" data-name="Path 84386" d="M176.445,96.3c0-.808.006-1.616,0-2.424,0-.207.055-.29.274-.286.637.012,1.275.008,1.913,0,.18,0,.252.059.247.245-.018.736.1.605-.6.618q-.356.006-.712,0c-.137,0-.206.042-.2.191q.009.511,0,1.023c0,.143.053.2.2.2.348,0,.7,0,1.045,0,.156,0,.231.048.228.216-.014.753.1.624-.608.636-.23,0-.46.006-.689,0-.122,0-.175.031-.173.161q.009.556,0,1.112c0,.148.063.194.2.192.371,0,.742,0,1.112,0,.169,0,.242.056.24.231-.009.737.072.623-.6.63-.541.005-1.083,0-1.624,0-.181,0-.247-.063-.246-.247.007-.83,0-1.661,0-2.491" transform="translate(-2429.577 9264.197)" fill="current"/>
      <path id="Path_84387" data-name="Path 84387" d="M416.188,96.29c0-.808.006-1.616,0-2.424,0-.215.072-.281.283-.28.636,0,.636,0,.636.633q0,2.257,0,4.515c0,.29-.007.3-.3.3-.614.005-.614.005-.614-.607q0-1.068,0-2.135" transform="translate(-2658.633 9264.198)" fill="current"/>
    </g>
  </g>
</svg>
