<svg xmlns="http://www.w3.org/2000/svg" width="26.158" height="34.165" viewBox="0 0 26.158 34.165">
  <g id="Group_46571" data-name="Group 46571" transform="translate(2260 -9259.447)">
    <g id="Group_46608" data-name="Group 46608">
      <path id="Path_84373" data-name="Path 84373" d="M40.674,0a4.719,4.719,0,0,1,.911.45,1.451,1.451,0,0,1,.542.816c.091.481.11.977.153,1.467.074.84.073,1.685.189,2.523.044.314.035.635.061.953.076.921.085,1.847.149,2.77.079,1.119.162,2.237.209,3.358.031.734.14,1.468.118,2.2a2.6,2.6,0,0,1-.546,1.7,1.857,1.857,0,0,1-2.413.313A4.737,4.737,0,0,1,38.835,15.2c-.861-1.347-1.711-2.7-2.563-4.055-1.314-2.086-2.631-4.171-3.932-6.265a2.268,2.268,0,0,1-.482-1.012,1.8,1.8,0,0,1,.488-1.374,4.142,4.142,0,0,1,1.581-.971A15.326,15.326,0,0,1,36.511.624,16.52,16.52,0,0,1,39.4.058c.024,0,.046-.038.068-.058Z" transform="translate(-2289.189 9259.447)" fill="current"/>
      <path id="Path_84374" data-name="Path 84374" d="M180.038,126.181a2.1,2.1,0,0,1-2.122-2.447,3.139,3.139,0,0,1,.729-1.252q1.427-1.941,2.863-3.877c.446-.6.9-1.2,1.342-1.8a1.811,1.811,0,0,1,2.182-.267,7.429,7.429,0,0,1,1.784,1.781,14.587,14.587,0,0,1,1.735,2.81,3.544,3.544,0,0,1,.433,1.553,1.621,1.621,0,0,1-1.151,1.605c-1.151.375-2.34.6-3.511.9-1.262.321-2.529.625-3.788.958a3.93,3.93,0,0,1-.494.037" transform="translate(-2423.019 9152.873)" fill="current"/>
      <path id="Path_84375" data-name="Path 84375" d="M184.25,254.539a5.522,5.522,0,0,1,1.841.481c1.857.6,3.7,1.233,5.554,1.857a2,2,0,0,1,1.341.944,2.074,2.074,0,0,1-.1,1.906,13.13,13.13,0,0,1-1.957,2.91,9.693,9.693,0,0,1-1.857,1.772,1.7,1.7,0,0,1-2,.152,2.5,2.5,0,0,1-.752-.842c-1.259-2.012-2.482-4.048-3.761-6.048a2.112,2.112,0,0,1,1.193-3.089c.169-.044.326-.013.492-.044" transform="translate(-2427.02 9026.186)" fill="current"/>
      <path id="Path_84376" data-name="Path 84376" d="M.007,187.351a11.024,11.024,0,0,1,.343-3.282,2.657,2.657,0,0,1,.635-1.26,1.6,1.6,0,0,1,1.723-.4c1.073.328,2.083.816,3.126,1.222,1.3.506,2.585,1.052,3.875,1.583a1.913,1.913,0,0,1,1.255,1.562,2.029,2.029,0,0,1-1.471,2.332c-1.9.559-3.778,1.2-5.667,1.8a8.172,8.172,0,0,1-1.806.493,1.6,1.6,0,0,1-1.4-.695,3.78,3.78,0,0,1-.54-1.642,12.118,12.118,0,0,1-.069-1.717" transform="translate(-2260 9092.373)" fill="current"/>
      <path id="Path_84377" data-name="Path 84377" d="M66.441,279.3q-.011.8-.022,1.6a8.277,8.277,0,0,0-.052,1.537v1.405a5.153,5.153,0,0,1-.025.7,1.865,1.865,0,0,1-1.758,1.372,9.578,9.578,0,0,1-3.177-.693,11.6,11.6,0,0,1-2.906-1.447,1.78,1.78,0,0,1-.441-2.683c.8-.983,1.627-1.949,2.45-2.915.795-.932,1.571-1.881,2.36-2.819a1.991,1.991,0,0,1,2.309-.481,1.9,1.9,0,0,1,1.258,1.487q0,.837,0,1.674,0,.633,0,1.266" transform="translate(-2312.81 9007.705)" fill="current"/>
    </g>
  </g>
</svg>
