<svg xmlns="http://www.w3.org/2000/svg" width="20.823" height="20.82" viewBox="0 0 20.823 20.82">
  <g id="Group_46573" data-name="Group 46573" transform="translate(2259.651 -8999.915)">
    <g id="Group_42829" data-name="Group 42829" transform="translate(-2259.651 8999.915)">
      <path id="Path_84094" data-name="Path 84094" d="M-1011.353,1515.346c-.549,0-1.1,0-1.646,0-.143,0-.195-.021-.193-.183q.013-1.646,0-3.293c0-.175.061-.2.207-.186a1.738,1.738,0,0,1,1.075.42c.693.638,1.361,1.3,2,2a1.812,1.812,0,0,1,.414,1.139c.009.128-.075.1-.144.1Z" transform="translate(1025.354 -1511.684)" fill="current"/>
      <g id="Component_355_12" data-name="Component 355 – 12" transform="translate(0 0)">
        <path id="Path_84086" data-name="Path 84086" d="M-1237.625,1532.48h-12.807c-.014-.062-.076-.056-.114-.066a1.9,1.9,0,0,1-1.356-1.89q.019-8.466.007-16.932a1.83,1.83,0,0,1,1.918-1.928q4.431,0,8.862,0c.152,0,.2.029.2.194-.008,1.314,0,2.629,0,3.943,0,.523.22.745.736.745,1.308,0,2.615,0,3.923,0,.167,0,.228.023.224.213-.014.738-.01,1.477,0,2.215a.467.467,0,0,1-.15.372q-1.951,1.93-3.892,3.869a2.456,2.456,0,0,0-.623.914c-.226.642-.453,1.284-.649,1.935a1.506,1.506,0,0,0,1.261,1.922,1.505,1.505,0,0,0,.7-.067c.5-.172,1.005-.351,1.514-.505a2.937,2.937,0,0,0,1.3-.79c.164-.172.34-.332.536-.522,0,1.565.009,3.083,0,4.6a1.753,1.753,0,0,1-.7,1.384A2.486,2.486,0,0,1-1237.625,1532.48Zm-6.97-13.5h4.123a1.252,1.252,0,0,0,.242-.015.586.586,0,0,0,.5-.6.588.588,0,0,0-.5-.593,1.306,1.306,0,0,0-.243-.013h-8.205a1.728,1.728,0,0,0-.2,0,.609.609,0,0,0-.523.826.643.643,0,0,0,.651.388Zm-1.2,1.22h-.751c-.744,0-1.489,0-2.233,0a.611.611,0,0,0-.631.809.645.645,0,0,0,.676.409h4.65c.426,0,.853,0,1.279,0a.6.6,0,0,0,.64-.631.6.6,0,0,0-.665-.587C-1243.823,1520.2-1244.812,1520.2-1245.8,1520.2Zm-.011,3.659c.988,0,1.976,0,2.964,0a.606.606,0,0,0,.675-.636.611.611,0,0,0-.689-.582q-2.944,0-5.888,0a1,1,0,0,0-.2.015.6.6,0,0,0-.458.818.646.646,0,0,0,.653.385Q-1247.283,1523.862-1245.811,1523.861Zm.015,2.439c.988,0,1.976,0,2.964,0a.6.6,0,0,0,.659-.651.6.6,0,0,0-.663-.567q-2.975,0-5.949,0a.861.861,0,0,0-.259.04.6.6,0,0,0-.286.927.661.661,0,0,0,.569.252Q-1247.278,1526.3-1245.8,1526.3Zm3.629,3.659c.6,0,1.206.005,1.809,0a.6.6,0,0,0,.628-.6.593.593,0,0,0-.619-.612c-1.206-.006-2.412,0-3.618,0a.587.587,0,0,0-.529.287.583.583,0,0,0-.014.616.607.607,0,0,0,.574.314C-1243.347,1529.961-1242.757,1529.959-1242.167,1529.959Z" transform="translate(1251.902 -1511.66)" fill="current"/>
        <path id="Path_84087" data-name="Path 84087" d="M-898.214,1631.213c-.214.626-.766.974-1.179,1.436-.047.053-.081.048-.129,0q-.8-.806-1.609-1.608c-.064-.063-.04-.1.01-.146.275-.271.54-.552.822-.815a1.232,1.232,0,0,1,2.054.625c0,.009.02.014.03.021Z" transform="translate(919.036 -1623.729)" fill="current"/>
        <path id="Path_84093" data-name="Path 84093" d="M-991.058,1673.091c-.024.026-.051.055-.079.083q-1.916,1.917-3.831,3.836c-.076.077-.119.067-.189,0-.514-.519-1.03-1.038-1.551-1.55-.09-.089-.063-.131.011-.2q1.912-1.907,3.818-3.821c.083-.084.127-.074.2,0,.509.515,1.023,1.026,1.534,1.538C-991.11,1673.005-991.062,1673.027-991.058,1673.091Z" transform="translate(1009.763 -1663.236)" fill="current"/>
        <path id="Path_84095" data-name="Path 84095" d="M-1021.537,1770.148l1.423,1.423c-.51.171-1.034.355-1.564.52-.266.083-.453-.158-.358-.451.134-.416.277-.828.416-1.243Z" transform="translate(1033.77 -1756.98)" fill="current"/>
      </g>
    </g>
  </g>
</svg>
