<svg xmlns="http://www.w3.org/2000/svg" width="21.047" height="25.056" viewBox="0 0 21.047 25.056">
  <g id="Group_46602" data-name="Group 46602" transform="translate(2232.167 -9084.234)">
    <g id="Component_356_12" data-name="Component 356 – 12" transform="translate(-2232.167 9084.234)">
      <path id="Path_84886" data-name="Path 84886" d="M118.487,5.133a5.144,5.144,0,1,1,5.12,5.165,5.151,5.151,0,0,1-5.12-5.165" transform="translate(-111.138 0)" fill="current"/>
      <path id="Path_84887" data-name="Path 84887" d="M8.062,143.145a3.71,3.71,0,0,1-2.288-.92,11.643,11.643,0,0,1-2.146-2.37A32.645,32.645,0,0,1,.8,135.288a6.916,6.916,0,0,1-.8-2.655A2.947,2.947,0,0,1,1,130.218a7.093,7.093,0,0,1,1.138-.855,1.152,1.152,0,0,1,1.683.349q.753,1.122,1.473,2.266a1.155,1.155,0,0,1-.368,1.657c-.173.115-.354.218-.529.33a.848.848,0,0,0-.31,1.231q.879,1.412,1.8,2.8a.919.919,0,0,0,1.245.237c.2-.124.393-.268.6-.388a1.044,1.044,0,0,1,1.355.172,1.836,1.836,0,0,1,.245.3q.693,1.055,1.376,2.116a1.2,1.2,0,0,1-.4,1.832,4.893,4.893,0,0,1-1.88.846c-.136.021-.274.032-.362.041" transform="translate(-0.001 -121.132)" fill="current"/>
      <path id="Path_84888" data-name="Path 84888" d="M82.409,196.524a13.113,13.113,0,0,1-1.928.019,5.856,5.856,0,0,1-2.094-.459,2.556,2.556,0,0,1-1.583-2.067,4.67,4.67,0,0,1,.784-3.292,4.832,4.832,0,0,1,1.379-1.395c.058-.039.065-.063.027-.125a.688.688,0,0,1,.593-1.056c.545,0,1.09,0,1.635,0a6.542,6.542,0,0,0-5.1-2.558q-1.857-.01-3.713,0a6.565,6.565,0,0,0-4.988,2.244.268.268,0,0,0-.034.388c.258.387.518.774.75,1.177.138.239.262.245.493.12a2.532,2.532,0,0,1,3.362.794q.814,1.188,1.569,2.415a2.529,2.529,0,0,1-.7,3.519,9.6,9.6,0,0,1-1.027.652,4.371,4.371,0,0,1-3.553.389,6.059,6.059,0,0,1-2.243-1.359c-.062-.056-.122-.158-.223-.1-.078.043-.05.143-.05.219,0,.376.01.753-.006,1.129a.418.418,0,0,0,.272.439,10.269,10.269,0,0,0,.976.433,18.261,18.261,0,0,0,5.633,1.05,25.037,25.037,0,0,0,5.531-.279,18.112,18.112,0,0,0,4.1-1.179.5.5,0,0,0,.349-.535c0-.2-.007-.4-.009-.6l-.2.02" transform="translate(-61.684 -174.074)" fill="current"/>
      <path id="Path_84889" data-name="Path 84889" d="M295.56,246.023a.435.435,0,0,1,.479-.058.472.472,0,0,1,.278.43.461.461,0,0,0,.923-.018,1.269,1.269,0,0,0-.638-1.134.451.451,0,0,1-.285-.551c0-.072,0-.145,0-.217a.471.471,0,1,0-.931-.008c0,.165-.006.331,0,.5a.154.154,0,0,1-.113.171,1.367,1.367,0,0,0-.791,1.537,1.4,1.4,0,0,0,1.288,1.1,1.017,1.017,0,0,1,.2.028.465.465,0,1,1-.575.573c-.016-.059-.015-.123-.026-.184a.447.447,0,0,0-.518-.394.452.452,0,0,0-.4.488,1.245,1.245,0,0,0,.592,1.081.566.566,0,0,1,.348.614.446.446,0,0,0,.462.459.476.476,0,0,0,.457-.458,1.494,1.494,0,0,0,0-.263.2.2,0,0,1,.139-.23,1.308,1.308,0,0,0,.781-1.222,1.344,1.344,0,0,0-.7-1.225,1.966,1.966,0,0,0-.77-.2.422.422,0,0,1-.363-.337.44.44,0,0,1,.163-.484" transform="translate(-276.193 -228.798)" fill="current"/>
    </g>
  </g>
</svg>
