<svg xmlns="http://www.w3.org/2000/svg" width="37" height="34.357" viewBox="0 0 37 34.357">
  <path id="Icon_ionic-ios-star" data-name="Icon ionic-ios-star" d="M37.846,15.268H25.7L22.005,4.25a1.338,1.338,0,0,0-2.511,0L15.8,15.268H3.571A1.325,1.325,0,0,0,2.25,16.589a.971.971,0,0,0,.025.223,1.27,1.27,0,0,0,.553.933l9.985,7.037L8.981,35.923a1.325,1.325,0,0,0,.454,1.487,1.278,1.278,0,0,0,.743.322,1.619,1.619,0,0,0,.826-.3l9.746-6.946L30.5,37.435a1.548,1.548,0,0,0,.826.3,1.186,1.186,0,0,0,.735-.322,1.309,1.309,0,0,0,.454-1.487L28.679,24.782l9.9-7.1.24-.206a1.385,1.385,0,0,0,.429-.884A1.4,1.4,0,0,0,37.846,15.268Z" transform="translate(-2.25 -3.375)" fill="#f8b720"/>
</svg>
