<svg id="refresh" xmlns="http://www.w3.org/2000/svg" width="24" height="24.003" viewBox="0 0 24 24.003">
  <path id="Path_84134" data-name="Path 84134" d="M-52.71,1291.484a1.542,1.542,0,0,1-.358.512,1.1,1.1,0,0,1-.737.234q-3.41,0-6.821,0a1.012,1.012,0,0,1-1.018-.623.934.934,0,0,1,.295-1.105c.652-.62,1.291-1.252,1.944-1.871.12-.114.114-.164-.01-.27a7.752,7.752,0,0,0-3.783-1.807,8.073,8.073,0,0,0-8.3,3.52,10.576,10.576,0,0,0-.814,1.722.649.649,0,0,1-.7.438c-.914-.013-1.828,0-2.742,0-.582,0-.785-.267-.635-.81a12.215,12.215,0,0,1,1.942-4.076,12.042,12.042,0,0,1,3.113-2.914,11.118,11.118,0,0,1,3.473-1.51,12.863,12.863,0,0,1,4.061-.335,12.268,12.268,0,0,1,6.4,2.386c.28.2.546.428.8.657.112.1.172.1.278-.007.577-.564,1.19-1.1,1.739-1.684a1.058,1.058,0,0,1,1.863.334Z" transform="translate(76.71 -1282.547)" fill="current"/>
  <path id="Path_84135" data-name="Path 84135" d="M-69.639,1496.311a3.851,3.851,0,0,0-.836-.131,12.1,12.1,0,0,1-6.154-2.836.686.686,0,0,1-.086-.077c-.116-.143-.205-.139-.345,0q-.9.9-1.822,1.766a1.008,1.008,0,0,1-1.7-.421,1.016,1.016,0,0,1-.027-.291q0-3.333,0-6.666a.975.975,0,0,1,.965-1.017c.062-.006.125-.007.187-.007h6.706a1.17,1.17,0,0,1,.73.19.934.934,0,0,1,.09,1.495q-.961.947-1.942,1.874c-.136.129-.147.184.008.314a7.967,7.967,0,0,0,3.795,1.795,8.034,8.034,0,0,0,5.9-1.155,7.288,7.288,0,0,0,2.929-3.52c.075-.189.175-.37.242-.562a.613.613,0,0,1,.675-.432c.891.013,1.782,0,2.673.005a1.671,1.671,0,0,1,.233.016.474.474,0,0,1,.416.59,11.74,11.74,0,0,1-4.183,6.554,11.6,11.6,0,0,1-5.429,2.371c-.323.052-.651.07-.977.1-.042,0-.1-.018-.118.042Z" transform="translate(80.614 -1472.308)" fill="current"/>
</svg>
