<svg xmlns="http://www.w3.org/2000/svg" width="26" height="26" viewBox="0 0 26 26">
  <g id="Group_48936" data-name="Group 48936" transform="translate(-1832 -269)">
    <path id="Path_85154" data-name="Path 85154" d="M0,0H26V26H0Z" transform="translate(1832 269)" fill="none"/>
    <path id="Path_85155" data-name="Path 85155" d="M14.143,3A9.93,9.93,0,0,0,4.286,13H1l4.26,4.322.077.156L9.762,13H6.476a7.667,7.667,0,1,1,7.667,7.778,7.551,7.551,0,0,1-5.41-2.289L7.177,20.067A9.738,9.738,0,0,0,14.143,23,9.93,9.93,0,0,0,24,13,9.93,9.93,0,0,0,14.143,3Zm-1.1,5.556v5.556l4.688,2.822.789-1.344L14.69,13.278V8.556Z" transform="translate(1832 269)" fill="#1f66ac"/>
  </g>
</svg>
