<?xml version="1.0" encoding="utf-8"?>
<!-- Generator: Adobe Illustrator 25.2.0, SVG Export Plug-In . SVG Version: 6.00 Build 0)  -->
<svg version="1.1" id="Layer_1" xmlns="http://www.w3.org/2000/svg" xmlns:xlink="http://www.w3.org/1999/xlink" x="0px" y="0px"
	 viewBox="0 0 196.6 60.6" style="enable-background:new 0 0 196.6 60.6;" xml:space="preserve">
<style type="text/css">
	.st0{fill:#FFFFFF;}
</style>
<g id="Group_42974" transform="translate(92.967 -3937.818)">
	<g id="Guest" transform="translate(-92.967 3954.73)">
		<g id="Group_42972">
			<g id="Group_42971">
				<g id="Group_42970">
					<g id="Group_42969">
						<path id="Path_84668" class="st0" d="M14.3,28.8c-1.9,0-3.8-0.1-5.6-0.5c-1.1-0.2-2.2-0.7-3-1.5c-0.7-0.8-1-1.9-1-2.9
							c0-1.7,0.3-3.4,0.8-5l1.1-4.1c0.5-1.9,1.1-3.8,2-5.6C9.2,8,10.1,6.9,11.2,6c1.1-0.9,2.5-1.4,3.9-1.7c2-0.4,4-0.6,6.1-0.5h5.8
							c2.1,0,4.3,0.1,6.4,0.4c1.3,0.1,2.5,0.6,3.5,1.3c0.7,0.5,1.2,1.3,1.2,2.2c0.1,1,0,2-0.3,3h-5.2c0-0.3,0-0.6-0.1-0.9
							c-0.2-0.5-0.6-0.9-1.1-1.1c-0.7-0.2-1.4-0.4-2.2-0.4c-0.9-0.1-2.1-0.1-3.6-0.1h-5c-1.2,0-2.3,0.1-3.5,0.2
							c-1,0.1-1.9,0.5-2.7,1c-0.8,0.6-1.4,1.4-1.9,2.3c-0.5,1.1-0.9,2.3-1.2,3.6l-0.7,2.8c-0.3,1-0.5,2-0.6,3.1
							c-0.1,0.8,0.1,1.5,0.6,2.1c0.5,0.6,1.2,0.9,2,1c1.1,0.2,2.2,0.3,3.4,0.3h5.2c1.5,0,2.7,0,3.7-0.1c0.9-0.1,1.7-0.2,2.5-0.5
							c0.7-0.3,1.3-0.7,1.8-1.3c0.4-0.6,0.6-1.2,0.8-1.8l0.7-2.7h-9.6l1-3.7h14.7l-1.2,4.6c-0.4,1.8-1.1,3.5-1.9,5.1
							c-0.6,1.2-1.4,2.1-2.5,2.9c-1.2,0.8-2.6,1.3-4,1.5c-2.1,0.3-4.2,0.5-6.3,0.4L14.3,28.8z"/>
						<path id="Path_84669" class="st0" d="M46.5,28.9c-1.2,0-2.5-0.1-3.7-0.4c-0.9-0.2-1.7-0.7-2.3-1.3c-0.6-0.7-0.9-1.5-1-2.4
							c-0.1-1.2,0-2.5,0.4-3.6l2.6-9.6h4.9L45.2,20c-0.3,0.9-0.4,1.8-0.4,2.6c0,0.7,0.2,1.4,0.7,1.9c0.5,0.5,1,0.9,1.7,1
							c0.9,0.2,1.7,0.3,2.6,0.3h2.5c1.8,0.1,3.5-0.5,4.9-1.5c1.4-1.1,2.4-2.6,2.8-4.3l2.3-8.5h5l-4.6,17.4h-4.9l1-3.8L57,26.8
							c-0.3,0.3-0.6,0.5-0.9,0.8c-0.3,0.3-0.7,0.5-1.1,0.6c-0.5,0.2-1,0.4-1.5,0.5c-0.7,0.1-1.4,0.2-2.1,0.2L46.5,28.9z"/>
						<path id="Path_84670" class="st0" d="M77.5,28.9c-1.7,0-3.3-0.1-5-0.4c-1-0.2-2-0.6-2.7-1.3c-0.6-0.6-0.9-1.4-1-2.2
							c0-1.2,0.1-2.4,0.5-3.5l0.7-2.6c0.3-1.2,0.8-2.4,1.4-3.5c0.5-0.9,1.2-1.6,2.1-2.2c1-0.6,2.1-1.1,3.2-1.3
							c1.6-0.3,3.3-0.5,4.9-0.5h3c1.7,0,3.4,0.1,5,0.4c1,0.1,1.9,0.6,2.6,1.2c0.6,0.6,0.9,1.4,0.8,2.2c0,1.2-0.2,2.5-0.5,3.7l-0.5,2
							H73.8l-0.4,1.4c-0.3,0.9-0.2,2,0.5,2.7c0.6,0.7,1.7,1,3.5,1h4c0.8,0,1.5,0,2-0.1c0.5,0,1.1-0.1,1.6-0.3
							c0.5-0.2,0.9-0.5,1.2-0.9c0.1-0.2,0.3-0.4,0.3-0.6h4.6c-0.2,0.6-0.4,1.1-0.7,1.6c-0.4,0.6-1,1.1-1.6,1.5c-1,0.6-2.1,1-3.2,1.2
							c-1.7,0.4-3.5,0.5-5.3,0.5L77.5,28.9z M80.2,14.4c-0.9,0-1.7,0.1-2.5,0.4c-0.6,0.2-1.2,0.5-1.7,1c-0.4,0.4-0.8,0.8-1,1.3
							c-0.2,0.3-0.3,0.7-0.4,1.1l-0.2,0.7H88l0.2-0.7c0.1-0.4,0.2-0.8,0.2-1.2c0-0.5-0.1-0.9-0.4-1.3c-0.3-0.4-0.8-0.7-1.3-0.9
							c-0.8-0.2-1.6-0.4-2.4-0.3L80.2,14.4z"/>
						<path id="Path_84671" class="st0" d="M100.1,28.9c-0.9,0-1.8-0.1-2.7-0.2c-0.7-0.1-1.3-0.4-1.8-0.8c-0.4-0.4-0.7-0.9-0.8-1.5
							c-0.1-0.6-0.1-1.2,0-1.7H99c0,0,0,0,0,0c0,0.3,0.1,0.6,0.3,0.8c0.2,0.2,0.5,0.4,0.9,0.5c0.4,0.1,0.9,0.2,1.4,0.2h7
							c0.9,0.1,1.8-0.1,2.5-0.5c0.6-0.4,1.1-1,1.2-1.7c0.2-0.6,0.1-1.2-0.3-1.6c-0.7-0.5-1.5-0.7-2.2-0.6l-8.5-0.2
							c-0.8,0-1.7-0.1-2.5-0.3c-0.6-0.1-1.1-0.3-1.6-0.7c-0.4-0.3-0.6-0.8-0.7-1.3c-0.1-0.7,0-1.4,0.2-2.1l0.2-0.9
							c0.2-0.8,0.5-1.5,0.9-2.1c0.4-0.6,0.8-1.1,1.4-1.5c0.7-0.5,1.5-0.8,2.3-1c1.1-0.3,2.3-0.4,3.5-0.4h8.5c1.1,0,2.1,0.1,3.1,0.2
							c0.7,0.1,1.3,0.4,1.9,0.8c0.4,0.4,0.7,0.9,0.8,1.4c0.1,0.6,0,1.2-0.1,1.8h-4.6c-0.1-1-1.2-1.5-3.4-1.5h-6.6
							c-0.8-0.1-1.6,0.1-2.4,0.5c-0.6,0.4-1,0.9-1.2,1.6c-0.2,0.9,0.1,1.3,0.4,1.5c0.6,0.3,1.4,0.4,2.1,0.4l8.2,0.2
							c1.1,0,2.2,0.1,3.3,0.3c0.7,0.1,1.3,0.4,1.8,0.9c0.4,0.3,0.6,0.8,0.7,1.3c0.1,0.7,0,1.4-0.2,2.1l-0.3,1
							c-0.3,1.5-1.3,2.9-2.6,3.7c-1.7,0.9-3.6,1.4-5.6,1.3L100.1,28.9z"/>
						<path id="Path_84672" class="st0" d="M130.5,28.8c-1.4,0-2.8-0.1-4.2-0.5c-0.9-0.2-1.7-0.7-2.4-1.4c-0.5-0.6-0.9-1.4-0.9-2.3
							c-0.1-1.1,0.1-2.3,0.4-3.3l1.6-6.1h-2.3l1-3.8h2.3l1-3.6h4.9l-1,3.6h13.3l-1,3.8H130l-1.7,6.4c-0.4,1-0.3,2.1,0.3,3
							c0.6,0.7,1.6,1,3.2,1h1.7c0.8,0,1.6-0.1,2.4-0.3c0.6-0.2,1.2-0.5,1.7-0.9c0.5-0.4,0.8-0.8,1.1-1.3c0.1-0.2,0.2-0.4,0.3-0.6
							h5.1c-0.2,0.7-0.5,1.3-0.8,2c-0.5,0.8-1.1,1.6-1.8,2.1c-1,0.7-2.1,1.3-3.3,1.6c-1.8,0.4-3.6,0.7-5.4,0.6L130.5,28.8z"/>
					</g>
				</g>
			</g>
		</g>
	</g>
	<g id="Group_42973" transform="translate(50.116 3937.818)">
		<path id="Path_84673" class="st0" d="M48.8,47.3l-8.9-14c-1.8,2.9-4.3,6.8-6.1,9.7l2.7,4.3L48.8,47.3z"/>
		<path id="Path_84674" class="st0" d="M36.5,13.3l-2.7,4.3c1.8,2.9,4.3,6.8,6.1,9.7l8.9-14L36.5,13.3z"/>
		<path id="Path_84675" class="st0" d="M20.3,3.7H4.8l16.9,26.6L4.8,56.9h15.5c3.6-5.6,13.1-20.7,16.9-26.6L20.3,3.7z"/>
	</g>
</g>
</svg>
