<?xml version="1.0" encoding="utf-8"?>
<!-- Generator: Adobe Illustrator 25.2.0, SVG Export Plug-In . SVG Version: 6.00 Build 0)  -->
<svg version="1.1" id="Layer_1" xmlns="http://www.w3.org/2000/svg" xmlns:xlink="http://www.w3.org/1999/xlink" x="0px" y="0px"
	 viewBox="0 0 196.6 60.6" style="enable-background:new 0 0 196.6 60.6;" xml:space="preserve">
<style type="text/css">
	.st0{fill:#FFFFFF;}
	.st1{fill:#1B1464;}
	.st2{fill:url(#SVGID_1_);}
</style>
<g>
	<g>
		<g>
			<g>
				<g>
					<path class="st0" d="M14.3,45.8c-2.3,0-4.2-0.2-5.6-0.5c-1.3-0.3-2.4-0.8-3-1.5c-0.6-0.7-1-1.7-1-2.9c0-1.3,0.2-3,0.8-5
						l1.1-4.1c0.6-2.2,1.3-4.1,2-5.6c0.7-1.4,1.5-2.5,2.6-3.3c1-0.8,2.3-1.4,3.9-1.7c1.6-0.4,3.7-0.5,6.1-0.5h5.8
						c2.6,0,4.8,0.1,6.4,0.4c1.6,0.3,2.7,0.7,3.5,1.3c0.7,0.6,1.1,1.3,1.2,2.2c0.1,0.8,0,1.8-0.3,3h-5.2c0-0.3,0-0.6-0.1-0.9
						c-0.1-0.5-0.5-0.8-1.1-1.1c-0.5-0.2-1.2-0.3-2.2-0.4c-0.9-0.1-2.1-0.1-3.6-0.1h-5c-1.4,0-2.5,0.1-3.5,0.2c-1,0.2-1.9,0.5-2.7,1
						c-0.7,0.5-1.4,1.3-1.9,2.3c-0.4,0.9-0.9,2.1-1.2,3.6L10.6,35c-0.3,1.2-0.5,2.3-0.6,3.1c-0.1,0.9,0.1,1.6,0.6,2.1
						c0.4,0.5,1.1,0.9,2,1c0.8,0.2,1.9,0.3,3.4,0.3h5.2c1.5,0,2.7,0,3.7-0.1c1-0.1,1.9-0.3,2.5-0.5c0.8-0.3,1.4-0.7,1.8-1.3
						c0.3-0.5,0.6-1.1,0.8-1.8l0.7-2.7h-9.6l1-3.7h14.7l-1.2,4.6c-0.6,2.1-1.2,3.8-1.9,5.1c-0.7,1.2-1.5,2.2-2.5,2.9
						c-1,0.7-2.4,1.2-4,1.5c-1.7,0.3-3.8,0.4-6.4,0.4H14.3z"/>
					<path class="st0" d="M46.5,45.8c-1.4,0-2.7-0.1-3.7-0.4c-1-0.3-1.7-0.7-2.3-1.3c-0.5-0.6-0.9-1.4-1-2.4c-0.1-1,0-2.2,0.4-3.6
						l2.6-9.7h4.9l-2.3,8.6c-0.3,1-0.4,1.9-0.4,2.6c0,0.8,0.3,1.4,0.6,1.9c0.4,0.5,1,0.8,1.7,1c0.7,0.2,1.6,0.3,2.6,0.3h2.5
						c2,0,3.6-0.5,4.9-1.5c1.3-1,2.3-2.5,2.8-4.3l2.3-8.6h5l-4.6,17.4h-4.9l1-3.8l-1.8,1.8c-0.2,0.2-0.5,0.5-0.9,0.8
						c-0.3,0.2-0.6,0.4-1.1,0.6c-0.4,0.2-1,0.4-1.5,0.5c-0.6,0.1-1.3,0.2-2.1,0.2H46.5z"/>
					<path class="st0" d="M77.4,45.8c-2,0-3.7-0.1-5-0.4c-1.2-0.3-2.1-0.7-2.7-1.3c-0.6-0.6-0.9-1.3-1-2.2c-0.1-1,0.1-2.1,0.5-3.5
						l0.7-2.6c0.4-1.4,0.8-2.6,1.4-3.5c0.5-0.9,1.2-1.6,2.1-2.2c0.9-0.6,2-1,3.2-1.3c1.3-0.3,3-0.5,4.9-0.5h3c2.1,0,3.8,0.1,5,0.4
						c1.2,0.2,2.1,0.7,2.6,1.2c0.5,0.5,0.8,1.3,0.8,2.2c0,1-0.2,2.2-0.5,3.7l-0.5,2H73.7l-0.4,1.4c-0.3,1.1-0.1,2,0.5,2.7
						c0.6,0.7,1.7,1,3.5,1h4c0.8,0,1.5,0,2-0.1c0.6,0,1.1-0.2,1.6-0.3c0.5-0.2,0.9-0.5,1.2-0.9c0.1-0.2,0.2-0.4,0.3-0.6H91
						c-0.2,0.5-0.4,1.1-0.7,1.6c-0.3,0.6-0.9,1.1-1.6,1.5c-0.8,0.5-1.9,0.9-3.2,1.2c-1.4,0.3-3.1,0.5-5.3,0.5H77.4z M80.2,31.3
						c-1,0-1.8,0.1-2.5,0.4c-0.7,0.2-1.3,0.6-1.7,1c-0.5,0.4-0.8,0.8-1,1.3c-0.2,0.4-0.3,0.7-0.4,1.1l-0.2,0.7H88l0.2-0.7
						c0.1-0.4,0.2-0.8,0.2-1.2c0-0.5-0.1-0.9-0.4-1.3c-0.3-0.4-0.7-0.7-1.3-0.9c-0.6-0.2-1.4-0.3-2.4-0.3H80.2z"/>
					<path class="st0" d="M100.1,45.8c-1,0-1.9-0.1-2.7-0.2c-0.7-0.1-1.3-0.4-1.8-0.8c-0.4-0.4-0.7-0.8-0.8-1.5
						c-0.1-0.5-0.1-1.1,0-1.7H99c0,0,0,0,0,0c0,0.3,0.1,0.6,0.3,0.8c0.2,0.2,0.5,0.4,0.9,0.5c0.3,0.1,0.8,0.2,1.4,0.2h7
						c1.2,0,2-0.2,2.5-0.5c0.6-0.4,1-1,1.2-1.7c0.2-0.6,0.1-1.2-0.3-1.6c-0.4-0.4-1.1-0.6-2.3-0.6l-8.5-0.2c-1,0-1.8-0.1-2.5-0.3
						c-0.7-0.1-1.2-0.4-1.6-0.7c-0.4-0.3-0.6-0.7-0.7-1.3c-0.1-0.5,0-1.2,0.2-2.1l0.2-0.9c0.2-0.8,0.5-1.5,0.9-2.1
						c0.4-0.6,0.8-1.1,1.4-1.5c0.6-0.4,1.4-0.8,2.3-1c1-0.2,2.1-0.4,3.5-0.4h8.5c1.2,0,2.3,0.1,3.2,0.2c0.8,0.1,1.4,0.4,1.9,0.8
						c0.4,0.3,0.7,0.8,0.8,1.4c0.1,0.5,0.1,1.1-0.1,1.8h-4.6c-0.1-1-1.2-1.5-3.4-1.5h-6.6c-1.1,0-1.8,0.2-2.4,0.5
						c-0.6,0.4-1,0.9-1.2,1.6c-0.2,0.9,0.1,1.3,0.4,1.5c0.3,0.2,1,0.4,2.1,0.4l8.2,0.2c1.4,0,2.5,0.1,3.3,0.3
						c0.8,0.2,1.4,0.5,1.8,0.9c0.4,0.4,0.6,0.8,0.7,1.3c0.1,0.6,0,1.3-0.2,2.1l-0.3,1c-0.4,1.7-1.3,2.9-2.6,3.7
						c-1.4,0.9-3.3,1.3-5.6,1.3H100.1z"/>
					<path class="st0" d="M130.5,45.8c-1.7,0-3.1-0.2-4.2-0.5c-1.1-0.3-1.9-0.8-2.4-1.4c-0.5-0.6-0.8-1.3-0.9-2.3
						c-0.1-0.9,0.1-2.1,0.4-3.3l1.6-6.1h-2.3l1-3.8h2.3l1-3.6h4.9l-1,3.6h13.3l-1,3.8H130l-1.7,6.4c-0.4,1.3-0.2,2.4,0.3,3
						c0.6,0.7,1.6,1,3.2,1h1.7c1,0,1.7-0.1,2.4-0.3c0.7-0.2,1.3-0.5,1.7-0.9c0.5-0.4,0.8-0.8,1.1-1.3c0.1-0.2,0.2-0.4,0.3-0.6h5.1
						c-0.2,0.7-0.5,1.3-0.8,2c-0.4,0.8-1,1.5-1.8,2.1c-0.8,0.6-1.9,1.2-3.3,1.6c-1.4,0.4-3.2,0.6-5.4,0.6H130.5z"/>
				</g>
			</g>
		</g>
	</g>
	<g>
		<g>
			<path class="st1" d="M191.9,47.3l-8.9-14c-1.8,2.9-4.3,6.8-6.2,9.7l2.7,4.3L191.9,47.3z"/>
		</g>
		<g>
			<path class="st1" d="M179.6,13.3l-2.7,4.3c1.8,2.9,4.3,6.8,6.2,9.7l8.9-14L179.6,13.3z"/>
		</g>
		<linearGradient id="SVGID_1_" gradientUnits="userSpaceOnUse" x1="147.8704" y1="30.3" x2="180.2337" y2="30.3">
			<stop  offset="0" style="stop-color:#3FA9F5"/>
			<stop  offset="1" style="stop-color:#1B1464"/>
		</linearGradient>
		<path class="st2" d="M163.4,3.7h-15.5l16.9,26.6l-16.9,26.6h15.5c3.6-5.7,13.2-20.7,16.9-26.6L163.4,3.7z"/>
	</g>
</g>
</svg>
